# xmcd
#
# Track frame offsets:
#   182
#   11330
#   26992
#   39422
#   51130
#   69290
#   84290
#   95670
#   111290
#   123590
#   139612
#
# Disc length: 2044 seconds
#
# Revision: 4
# Processed by: cddbd v1.5PL3 Copyright (c) Steve Scherf et al.
# Submitted via: Media_Universe 3.0
#
DISCID=8b07fa0b
DTITLE=Alan Jackson - When Somebody Loves You
DYEAR=2000
DGENRE=Country
TTITLE0=Meat and Potato Man
TTITLE1=When Somebody Loves You
TTITLE2=The Thrill Is Back
TTITLE3=www.memory
TTITLE4=Where I Come From
TTITLE5=I Still Love You
TTITLE6=Life Or Love
TTITLE7=A Love Like That
TTITLE8=It's Alright To Be A Redneck
TTITLE9=Maybe I Should Stay Here
TTITLE10=Three Minute Positive Not Too Country (Up-tempo Love Song)
EXTD=YEAR: 2000
EXTT0=
EXTT1=
EXTT2=
EXTT3=
EXTT4=
EXTT5=
EXTT6=
EXTT7=
EXTT8=
EXTT9=
EXTT10=
PLAYORDER=
